name D:\school\WTK\thesis\model\3dpredictsim\Results\running\Pog_s1_bCst_ig24_27ms.mot
datacolumns 126
datarows 4
range 0.29512464 0.31283212
endheader
time	pelvis_tilt	pelvis_list	pelvis_rotation	pelvis_tx	pelvis_ty	pelvis_tz	hip_flexion_l	hip_adduction_l	hip_rotation_l	hip_flexion_r	hip_adduction_r	hip_rotation_r	knee_angle_l	knee_angle_r	ankle_angle_l	ankle_angle_r	subtalar_angle_l	subtalar_angle_r	mtp_angle_l	mtp_angle_r	lumbar_extension	lumbar_bending	lumbar_rotation	arm_flex_l	arm_add_l	arm_rot_l	arm_flex_r	arm_add_r	arm_rot_r	elbow_flex_l	elbow_flex_r	pro_sup_l	pro_sup_r	glut_med1_l/activation	glut_med2_l/activation	glut_med3_l/activation	glut_min1_l/activation	glut_min2_l/activation	glut_min3_l/activation	semimem_l/activation	semiten_l/activation	bifemlh_l/activation	bifemsh_l/activation	sar_l/activation	add_long_l/activation	add_brev_l/activation	add_mag1_l/activation	add_mag2_l/activation	add_mag3_l/activation	tfl_l/activation	pect_l/activation	grac_l/activation	glut_max1_l/activation	glut_max2_l/activation	glut_max3_l/activation	iliacus_l/activation	psoas_l/activation	quad_fem_l/activation	gem_l/activation	peri_l/activation	rect_fem_l/activation	vas_med_l/activation	vas_int_l/activation	vas_lat_l/activation	med_gas_l/activation	lat_gas_l/activation	soleus_l/activation	tib_post_l/activation	flex_dig_l/activation	flex_hal_l/activation	tib_ant_l/activation	per_brev_l/activation	per_long_l/activation	per_tert_l/activation	ext_dig_l/activation	ext_hal_l/activation	ercspn_l/activation	intobl_l/activation	extobl_l/activation	glut_med1_r/activation	glut_med2_r/activation	glut_med3_r/activation	glut_min1_r/activation	glut_min2_r/activation	glut_min3_r/activation	semimem_r/activation	semiten_r/activation	bifemlh_r/activation	bifemsh_r/activation	sar_r/activation	add_long_r/activation	add_brev_r/activation	add_mag1_r/activation	add_mag2_r/activation	add_mag3_r/activation	tfl_r/activation	pect_r/activation	grac_r/activation	glut_max1_r/activation	glut_max2_r/activation	glut_max3_r/activation	iliacus_r/activation	psoas_r/activation	quad_fem_r/activation	gem_r/activation	peri_r/activation	rect_fem_r/activation	vas_med_r/activation	vas_int_r/activation	vas_lat_r/activation	med_gas_r/activation	lat_gas_r/activation	soleus_r/activation	tib_post_r/activation	flex_dig_r/activation	flex_hal_r/activation	tib_ant_r/activation	per_brev_r/activation	per_long_r/activation	per_tert_r/activation	ext_dig_r/activation	ext_hal_r/activation	ercspn_r/activation	intobl_r/activation	extobl_r/activation	
          0.29512464	        -12.74913760	          1.49312072	          0.97749437	          0.79683654	          0.83021960	         -0.00110044	         49.26403248	          3.76538780	         -2.22354353	          1.83508448	          0.40993791	          3.33525700	        -30.47624415	        -38.70379547	         17.91860905	         -7.25511750	         -1.25580090	          6.03985421	         -0.14525837	         14.03545854	          1.46499095	         -2.90663280	          2.68774913	         -9.72749133	        -13.67510649	          2.63477782	          1.00208243	        -14.46052492	         19.36299583	         65.11879528	         37.42260192	         86.51662706	         86.51662706	          0.06032315	          0.21224706	          0.32032540	          0.06032365	          0.06032398	          0.06036006	          0.54611965	          0.06032223	          0.44101883	          0.05000843	          0.13601465	          0.05096994	          0.14558898	          0.61290429	          0.59419066	          0.51453062	          0.07021649	          0.05005159	          0.13072591	          0.50477660	          0.49884960	          0.64841349	          0.07745484	          0.07993137	          0.13102177	          0.12158408	          0.75940898	          0.05000120	          0.09354772	          0.09058323	          0.10182884	          0.05394180	          0.05248147	          0.05491868	          0.07418892	          0.05501643	          0.05492122	          0.53140743	          0.42852606	          0.21969317	          0.68311717	          0.83682831	          0.71353960	          0.22550791	          0.05000143	          0.05000411	          0.11203854	          0.06399765	          0.08078645	          0.12336081	          0.11365191	          0.11195417	          0.15835825	          0.05008903	          0.05004877	          0.06417128	          0.39894884	          0.86485855	          0.23933715	          0.06334321	          0.07691830	          0.05000373	          0.94722165	          0.47903032	          0.19796751	          0.05581892	          0.05004408	          0.05000862	          0.76152088	          0.97039308	          0.71760849	          0.72494896	          0.14802359	          0.37962374	          0.08005646	          0.08442086	          0.07277297	          0.14921476	          0.22390354	          0.09296251	          0.20428275	          0.22230076	          0.26182078	          0.05000076	          0.06092461	          0.08897262	          0.06341252	          0.82371044	          0.68916576	          0.15419249	          0.21161754	          0.05000097	
          0.30102714	        -12.71852648	          1.42260322	          0.92160796	          0.81375576	          0.82853378	         -0.00106037	         48.98976020	          3.89672147	         -1.92022546	          2.24707286	          0.44983226	          3.20233469	        -30.95026800	        -40.61940047	         17.18435768	         -7.57932278	         -1.60200771	          6.59433320	         -0.13051234	         11.46757616	          1.58337028	         -2.96541135	          2.67720852	         -9.77980512	        -13.63385060	          2.55038303	          0.87680258	        -14.46600226	         19.37491711	         64.80240406	         37.38098711	         86.51662706	         86.51662706	          0.05492054	          0.19323787	          0.29164060	          0.05492221	          0.05492229	          0.05495508	          0.49720708	          0.05492037	          0.40151954	          0.05491887	          0.12383293	          0.07993930	          0.16801896	          0.61893506	          0.54098202	          0.47667788	          0.06392866	          0.07338727	          0.11902425	          0.54336065	          0.55125277	          0.66468154	          0.07052513	          0.07277343	          0.37640537	          0.27687116	          0.82734343	          0.05000324	          0.17002313	          0.16121631	          0.16638512	          0.05000008	          0.05000019	          0.05000003	          0.14543579	          0.05009838	          0.05000614	          0.53986484	          0.39014626	          0.20001709	          0.77258730	          0.82895198	          0.64963367	          0.20717332	          0.05000103	          0.05000572	          0.10200401	          0.05826715	          0.07355169	          0.11231245	          0.10347328	          0.10192785	          0.17163696	          0.05000837	          0.05000545	          0.05842534	          0.36327219	          0.79221029	          0.28607750	          0.05767300	          0.07003200	          0.05000130	          0.96212440	          0.57499874	          0.19518798	          0.05082203	          0.05000163	          0.05000070	          0.69331621	          0.90687800	          0.73309908	          0.66002534	          0.13476673	          0.47065065	          0.07288633	          0.07685983	          0.06625520	          0.13585064	          0.20384997	          0.08463659	          0.18598660	          0.20239427	          0.23837176	          0.08321910	          0.05546811	          0.08100398	          0.05773327	          0.87349121	          0.77693861	          0.17384536	          0.28381459	          0.05000052	
          0.30692963	        -12.68509851	          1.36089852	          0.85352053	          0.83065849	          0.82664126	         -0.00102402	         48.65962096	          4.02783327	         -1.58548784	          2.81037753	          0.49723327	          3.04661460	        -31.94035782	        -42.65173832	         16.27356547	         -7.43426072	         -1.95257642	          7.07143067	         -0.11249061	          9.33203609	          1.70383610	         -3.02214359	          2.65530174	         -9.79479234	        -13.60196016	          2.50661247	          0.77707282	        -14.46132088	         19.38421932	         64.38054295	         37.28962479	         86.51662706	         86.51662706	          0.05000189	          0.17593126	          0.26552177	          0.05000355	          0.05000374	          0.05003408	          0.45267528	          0.05000203	          0.36555792	          0.05000073	          0.11274223	          0.07278598	          0.20466316	          0.67191888	          0.56854731	          0.49483871	          0.06031731	          0.06703554	          0.10836695	          0.52534605	          0.51488263	          0.62846117	          0.06625541	          0.06625738	          0.55249562	          0.25207458	          0.87609468	          0.06310191	          0.23027650	          0.20715022	          0.22383800	          0.08693999	          0.09851394	          0.07715550	          0.13241436	          0.05000609	          0.05002889	          0.49151242	          0.47173178	          0.21053666	          0.70339183	          0.75470796	          0.59145010	          0.18861820	          0.05000006	          0.05491824	          0.09286820	          0.05648856	          0.09007093	          0.10225356	          0.09420619	          0.09279943	          0.17631723	          0.05011316	          0.21771147	          0.05319318	          0.33073802	          0.72126719	          0.48767414	          0.18598274	          0.07282018	          0.05491611	          0.97281912	          0.52354998	          0.31766336	          0.07270885	          0.06629708	          0.07277306	          0.63122014	          0.82565696	          0.66744710	          0.60091217	          0.12269681	          0.47319122	          0.06635841	          0.06997602	          0.06032125	          0.12368342	          0.18559246	          0.07705626	          0.16932903	          0.18426865	          0.21702275	          0.13691593	          0.05491108	          0.07374941	          0.12354998	          0.90921483	          0.83992628	          0.19032783	          0.28135605	          0.05000024	
          0.31283212	        -12.65017030	          1.31446075	          0.76850147	          0.84754056	          0.82460160	         -0.00098480	         48.19182444	          4.14920210	         -1.17244123	          3.50883613	          0.54562577	          2.88068382	        -33.07493044	        -44.75378698	         15.66604635	         -6.97630422	         -2.33057843	          7.49150510	         -0.24569803	          7.56327238	          1.82570683	         -3.08164962	          2.62606302	         -9.76786915	        -13.58064289	          2.51028164	          0.70521376	        -14.44210599	         19.38718580	         63.84161429	         37.14308741	         86.51662706	         86.51662706	          0.31826286	          0.40863305	          0.47292501	          0.31826403	          0.31826412	          0.31828638	          0.41213191	          0.06375399	          0.33281715	          0.08680894	          0.10264485	          0.06626804	          0.18633304	          0.61173986	          0.51762756	          0.46684149	          0.05491993	          0.06104824	          0.10599339	          0.65937788	          0.60836510	          0.61891119	          0.06032175	          0.06032340	          0.67885769	          0.22952275	          0.91108186	          0.05745036	          0.20965221	          0.18859722	          0.20379039	          0.07915337	          0.08969082	          0.07024517	          0.13799862	          0.05492591	          0.05492433	          0.46965321	          0.42948193	          0.19168034	          0.78709041	          0.82397373	          0.70681317	          0.17172486	          0.08780844	          0.05000156	          0.08455307	          0.05143126	          0.08200392	          0.09309751	          0.08577082	          0.08448845	          0.17246163	          0.15661145	          0.19825327	          0.10116514	          0.31698066	          0.65667025	          0.48276640	          0.16932635	          0.06630057	          0.05000283	          0.98049402	          0.59329063	          0.30099892	          0.06619776	          0.06035962	          0.06625538	          0.57468564	          0.75170854	          0.60766797	          0.54709256	          0.11170775	          0.43081175	          0.06041514	          0.06370874	          0.05491873	          0.11260595	          0.16897016	          0.07015485	          0.15416339	          0.16776654	          0.19758583	          0.15643147	          0.05000324	          0.06714453	          0.33346169	          0.93485062	          0.88512722	          0.18478325	          0.25615672	          0.06009337	
